<?xml version="1.0" encoding="utf-8"?>
<!-- Generator: Adobe Illustrator 22.1.0, SVG Export Plug-In . SVG Version: 6.00 Build 0)  -->
<svg version="1.1" id="Layer_1" xmlns="http://www.w3.org/2000/svg" xmlns:xlink="http://www.w3.org/1999/xlink" x="0px" y="0px"
	 viewBox="0 0 141.7 141.7" style="enable-background:new 0 0 141.7 141.7;" xml:space="preserve">
<style type="text/css">
	.st0{fill:#FFFFFF;}
</style>
<circle cx="70.9" cy="70.9" r="70.9"/>
<g>
	<path class="st0" d="M96.6,23.6c-12.3-9.5-39.1-8.3-51.2,2.2c-7.8,6.7-8.8,16.2-2.8,26.8l7.5,12.7l0.8-2.7l0.3-0.7l-6.4-10.7
		c-5.3-9.5-4.6-17.6,2.2-23.5c11.4-9.7,36.5-10.8,48-2c5.8,4.5,6.9,10.9,3.1,18.6c-0.4,0.6,0,1.4,0.6,1.8c0.6,0.4,1.4,0,1.8-0.6
		C104.8,36.7,103.5,28.9,96.6,23.6z"/>
	<path class="st0" d="M69.6,79.1l1.3-2.3l0.3-0.5L57.8,51.4c-0.3-0.4-0.7-0.7-1.3-0.7c-0.5,0-1,0.4-1.2,0.9l-3.6,11.3l-1.1,3.4
		l-7.4,23.6c-0.2,0.7,0.2,1.4,0.9,1.7c0.1,0,0.3,0.1,0.4,0.1c0.5,0,1.1-0.4,1.3-0.9l6.7-21.3l1.2-3.4L57,55.5L69.6,79.1z"/>
	<g>
		<polyline class="st0" points="71.7,82.9 71.7,83 71.8,82.8 		"/>
		<path class="st0" d="M97.2,50.9c-0.6-0.4-1.4-0.1-1.8,0.5l-4.8,9.2L88.8,64l-12,22.8l-3-5.7l-1.2,2.2l-0.4,0.6l3.4,6.4
			c0.3,0.4,0.7,0.7,1.2,0.7s1-0.3,1.2-0.7l12-22.7l1.8-3.3l6.1-11.6C98.1,52,97.8,51.2,97.2,50.9z"/>
	</g>
	<path class="st0" d="M73.2,80.1l13-24.7l2.2,7.4l1.3-2.5l0.4-0.8l-2.4-7.9c-0.2-0.5-0.6-0.9-1.2-0.9c-0.5-0.1-1.1,0.2-1.3,0.7
		L71.7,77.2l-1.5,2.9l-3.9,7.3l-12-20.3l-0.8,2.6l-0.3,0.8l12,20.2c0.3,0.4,0.7,0.7,1.2,0.6c0.4,0,0.9-0.3,1.2-0.7l4.1-7.8
		L73.2,80.1z"/>
	<path class="st0" d="M99.8,90.8L92,65.3l-1.3,2.6l-0.4,0.7l7,22.9c3.8,13.4-2.2,20.9-7.9,24.7c-11,7.5-29.6,7.5-39.7,0
		c-4.3-3.1-8.7-9.1-5.6-18.8c0.2-0.7-0.2-1.4-0.9-1.7c-0.7-0.2-1.4,0.2-1.7,0.9c-2.9,8.8-0.5,16.6,6.5,21.8
		c5.5,4.1,13.3,6.2,21.2,6.2c7.8,0,15.8-2.1,21.6-6.1C99.9,112.3,103,102.5,99.8,90.8z"/>
</g>
</svg>
