<?xml version="1.0" encoding="utf-8"?>
<!-- Generator: Adobe Illustrator 22.1.0, SVG Export Plug-In . SVG Version: 6.00 Build 0)  -->
<svg version="1.1" id="Layer_1" xmlns="http://www.w3.org/2000/svg" xmlns:xlink="http://www.w3.org/1999/xlink" x="0px" y="0px"
	 viewBox="0 0 283.5 150.2" style="enable-background:new 0 0 283.5 150.2;" xml:space="preserve">
<style type="text/css">
	.st0{fill:#F06020;}
	.st1{fill:#F06020;stroke:#FFFFFF;stroke-miterlimit:10;}
	.st2{fill:#FFFFFF;}
</style>
<g>
	<path class="st0" d="M165.3,34.8c-12.3-9.5-39.1-8.3-51.2,2.2c-7.8,6.7-8.8,16.2-2.8,26.8l7.5,12.7l0.8-2.7l0.3-0.7l-6.4-10.7
		c-5.3-9.5-4.6-17.6,2.2-23.5c11.3-9.8,36.4-10.8,47.9-2.1c5.8,4.5,6.9,10.9,3.1,18.6c-0.4,0.6,0,1.4,0.6,1.8c0.6,0.4,1.4,0,1.8-0.6
		C173.6,47.9,172.2,40.1,165.3,34.8z"/>
	<path class="st0" d="M138.3,90.3l1.3-2.3l0.3-0.5l-13.4-24.8c-0.3-0.4-0.7-0.7-1.3-0.7c-0.5,0-1,0.4-1.2,0.9l-3.6,11.3l-1.1,3.4
		l-7.4,23.6c-0.2,0.7,0.2,1.4,0.9,1.7c0.1,0,0.3,0.1,0.4,0.1c0.5,0,1.1-0.4,1.3-0.9l6.7-21.3l1.2-3.4l3.3-10.6L138.3,90.3z"/>
	<g>
		<polyline class="st0" points="140.4,94.1 140.4,94.2 140.5,94 		"/>
		<path class="st0" d="M165.9,62.1c-0.6-0.4-1.4-0.1-1.8,0.5l-4.8,9.2l-1.8,3.3l-12,22.8l-3-5.7l-1.2,2.2l-0.4,0.6l3.4,6.4
			c0.3,0.4,0.7,0.7,1.2,0.7c0.5,0,1-0.3,1.2-0.7l12-22.7l1.8-3.3l6.1-11.6C166.8,63.2,166.6,62.4,165.9,62.1z"/>
	</g>
	<path class="st0" d="M141.9,91.3l13-24.7l2.2,7.4l1.3-2.5l0.4-0.8l-2.4-7.9c-0.2-0.5-0.6-0.9-1.2-0.9c-0.5-0.1-1.1,0.2-1.3,0.7
		l-13.6,25.8l-1.5,2.9l-3.9,7.3l-12-20.3l-0.8,2.6l-0.3,0.8l12,20.2c0.3,0.4,0.7,0.7,1.2,0.6c0.4,0,0.9-0.3,1.2-0.7l4.1-7.8
		L141.9,91.3z"/>
	<path class="st0" d="M168.5,102l-7.8-25.5l-1.3,2.6l-0.4,0.7l7,22.9c3.8,13.4-2.2,20.9-7.9,24.7c-11,7.5-29.6,7.5-39.7,0
		c-4.3-3.1-8.7-9.1-5.6-18.8c0.2-0.7-0.2-1.4-0.9-1.7c-0.7-0.2-1.4,0.2-1.7,0.9c-2.9,8.8-0.5,16.6,6.5,21.8
		c5.5,4.1,13.3,6.2,21.2,6.2c7.8,0,15.8-2.1,21.6-6.1C168.6,123.5,171.8,113.7,168.5,102z"/>
</g>
<polygon class="st1" points="173.3,30.6 157.3,25.1 141.4,19 138.3,27.9 152.6,38.3 170.3,39.1 "/>
<g>
	<path class="st0" d="M155.3,31.3c-0.1,0-0.2,0-0.3-0.1l-22.5-16.3c-0.2-0.1-0.3-0.4-0.2-0.6c0.1-0.2,0.3-0.3,0.5-0.3
		c0,0,27.8,1.2,27.8,1.2c0.1,0,0.2,0,0.3,0.1l22.5,16.3c0.2,0.1,0.3,0.4,0.2,0.6c-0.1,0.2-0.3,0.3-0.5,0.3
		C183.1,32.5,155.3,31.3,155.3,31.3z"/>
	<path class="st2" d="M132.8,14.4l27.8,1.2L183.1,32l-27.8-1.2L132.8,14.4 M132.8,13.4c-0.4,0-0.8,0.3-0.9,0.7
		c-0.1,0.4,0,0.9,0.4,1.1l22.5,16.3c0.2,0.1,0.3,0.2,0.5,0.2L183,33c0,0,0,0,0,0c0.4,0,0.8-0.3,0.9-0.7c0.1-0.4,0-0.9-0.4-1.1
		l-22.5-16.3c-0.2-0.1-0.3-0.2-0.5-0.2L132.8,13.4C132.8,13.4,132.8,13.4,132.8,13.4L132.8,13.4z"/>
</g>
<polygon class="st0" points="180.4,31.8 183,32 183,48.8 180.4,48.8 "/>
</svg>
