<?xml version="1.0" encoding="utf-8"?>
<!-- Generator: Adobe Illustrator 22.1.0, SVG Export Plug-In . SVG Version: 6.00 Build 0)  -->
<svg version="1.1" id="Layer_1" xmlns="http://www.w3.org/2000/svg" xmlns:xlink="http://www.w3.org/1999/xlink" x="0px" y="0px"
	 viewBox="0 0 283.5 150.2" style="enable-background:new 0 0 283.5 150.2;" xml:space="preserve">
<style type="text/css">
	.st0{fill:#F06020;}
	.st1{fill:none;stroke:#F06020;stroke-width:3;stroke-linecap:round;stroke-miterlimit:10;}
</style>
<g>
	<path class="st0" d="M121.9,22.7c-13.7-10.6-43.6-9.3-57.1,2.4c-8.7,7.5-9.8,18.1-3.1,29.9l8.4,14.2l0.9-3l0.3-0.8l-7.1-11.9
		c-5.9-10.6-5.1-19.6,2.5-26.2c12.6-10.9,40.6-12.1,53.4-2.3c6.5,5,7.7,12.2,3.5,20.7c-0.4,0.7,0,1.6,0.7,2c0.7,0.4,1.6,0,2-0.7
		C131.1,37.3,129.6,28.6,121.9,22.7z"/>
	<path class="st0" d="M91.8,84.6l1.4-2.6l0.3-0.6L78.6,53.7c-0.3-0.5-0.8-0.8-1.4-0.8c-0.6,0-1.1,0.5-1.3,1l-4,12.6l-1.2,3.8
		l-8.3,26.3c-0.2,0.8,0.2,1.6,1,1.9c0.1,0,0.3,0.1,0.4,0.1c0.6,0,1.2-0.4,1.4-1l7.5-23.8L74,70l3.7-11.8L91.8,84.6z"/>
	<g>
		<polyline class="st0" points="94.1,88.8 94.1,88.9 94.2,88.7 		"/>
		<path class="st0" d="M122.6,53.1c-0.7-0.4-1.6-0.1-2,0.6L115.2,64l-2,3.7L99.8,93.1l-3.4-6.4l-1.3,2.4l-0.4,0.7l3.8,7.1
			c0.3,0.5,0.8,0.8,1.3,0.8c0.6,0,1.1-0.3,1.3-0.8l13.4-25.3l2-3.7l6.8-12.9C123.6,54.4,123.3,53.5,122.6,53.1z"/>
	</g>
	<path class="st0" d="M95.8,85.7l14.5-27.5l2.5,8.2l1.5-2.8l0.5-0.9l-2.7-8.8c-0.2-0.6-0.7-1-1.3-1c-0.6-0.1-1.2,0.2-1.5,0.8
		L94.1,82.5l-1.7,3.2l-4.3,8.1L74.7,71.2l-0.9,2.9L73.5,75l13.4,22.5c0.3,0.5,0.8,0.8,1.3,0.7c0.5,0,1-0.3,1.3-0.8l4.6-8.7
		L95.8,85.7z"/>
	<path class="st0" d="M125.5,97.6l-8.7-28.4l-1.5,2.9l-0.4,0.8l7.8,25.5c4.2,15-2.5,23.3-8.8,27.6c-12.3,8.4-33,8.4-44.3,0
		c-4.8-3.5-9.7-10.1-6.2-21c0.2-0.8-0.2-1.6-1-1.9c-0.8-0.2-1.6,0.2-1.9,1c-3.2,9.8-0.6,18.5,7.3,24.3c6.1,4.6,14.8,6.9,23.6,6.9
		c8.7,0,17.6-2.3,24.1-6.8C125.6,121.6,129.1,110.7,125.5,97.6z"/>
</g>
<path class="st1" d="M160.5,47.5c0-14.8,15.8-22.7,29-22.7c13.5,0,23.9,7.2,23.8,24.7c-0.1,12.6-12.5,16.5-21.5,25.8
	c-7,7.2-4.8,30.7-4.8,33.4"/>
<circle class="st0" cx="186.9" cy="127.8" r="1.5"/>
</svg>
