<?xml version="1.0" encoding="utf-8"?>
<!-- Generator: Adobe Illustrator 22.1.0, SVG Export Plug-In . SVG Version: 6.00 Build 0)  -->
<svg version="1.1" id="Layer_1" xmlns="http://www.w3.org/2000/svg" xmlns:xlink="http://www.w3.org/1999/xlink" x="0px" y="0px"
	 viewBox="0 0 283.5 150.2" style="enable-background:new 0 0 283.5 150.2;" xml:space="preserve">
<style type="text/css">
	.st0{fill:#FFFFFF;stroke:#F06020;stroke-width:3;stroke-miterlimit:10;}
	.st1{fill:#F06020;}
	.st2{fill:none;stroke:#F06020;stroke-linecap:round;stroke-miterlimit:10;}
</style>
<path class="st0" d="M165.7,130.5H95.6c-1.6,0-2.8-1.3-2.8-2.8V15.3c0-1.6,1.3-2.8,2.8-2.8h70.1c1.6,0,2.8,1.3,2.8,2.8v112.3
	C168.5,129.2,167.2,130.5,165.7,130.5z"/>
<path class="st0" d="M179.2,137.7h-70.1c-1.6,0-2.8-1.3-2.8-2.8V22.5c0-1.6,1.3-2.8,2.8-2.8h70.1c1.6,0,2.8,1.3,2.8,2.8v112.3
	C182,136.4,180.7,137.7,179.2,137.7z"/>
<g>
	<path class="st1" d="M133.5,29.9c-4.1-3.1-13-2.8-17,0.7c-2.6,2.2-2.9,5.4-0.9,8.9l2.5,4.2l0.3-0.9l0.1-0.3l-2.1-3.5
		c-1.8-3.1-1.5-5.8,0.7-7.8c3.8-3.3,12.1-3.6,15.9-0.7c1.9,1.5,2.3,3.6,1.1,6.2c-0.1,0.2,0,0.5,0.2,0.6c0.2,0.1,0.5,0,0.6-0.2
		C136.2,34.3,135.7,31.7,133.5,29.9z"/>
	<path class="st1" d="M124.5,48.3l0.4-0.8l0.1-0.2l-4.4-8.3c-0.1-0.2-0.3-0.2-0.4-0.2c-0.2,0-0.3,0.1-0.4,0.3l-1.2,3.8l-0.4,1.1
		l-2.5,7.8c-0.1,0.2,0.1,0.5,0.3,0.6c0,0,0.1,0,0.1,0c0.2,0,0.4-0.1,0.4-0.3l2.2-7.1l0.4-1.1l1.1-3.5L124.5,48.3z"/>
	<g>
		<polyline class="st1" points="125.2,49.6 125.2,49.6 125.2,49.5 		"/>
		<path class="st1" d="M133.7,38.9c-0.2-0.1-0.5,0-0.6,0.2l-1.6,3.1l-0.6,1.1l-4,7.6l-1-1.9l-0.4,0.7l-0.1,0.2l1.1,2.1
			c0.1,0.1,0.2,0.2,0.4,0.2c0.2,0,0.3-0.1,0.4-0.2l4-7.5l0.6-1.1l2-3.8C134,39.3,133.9,39.1,133.7,38.9z"/>
	</g>
	<path class="st1" d="M125.7,48.6l4.3-8.2l0.7,2.4l0.4-0.8l0.1-0.3l-0.8-2.6c0-0.2-0.2-0.3-0.4-0.3c-0.2,0-0.3,0.1-0.4,0.2l-4.5,8.6
		l-0.5,0.9l-1.3,2.4l-4-6.7l-0.3,0.8l-0.1,0.3l4,6.7c0.1,0.1,0.2,0.2,0.4,0.2c0.2,0,0.3-0.1,0.4-0.2l1.4-2.6L125.7,48.6z"/>
	<path class="st1" d="M134.5,52.2l-2.6-8.4l-0.5,0.9l-0.1,0.2l2.3,7.6c1.2,4.4-0.7,6.9-2.6,8.2c-3.7,2.5-9.8,2.5-13.2,0
		c-1.4-1.1-2.9-3-1.8-6.2c0.1-0.2-0.1-0.5-0.3-0.6c-0.2-0.1-0.5,0.1-0.6,0.3c-0.9,2.9-0.2,5.5,2.2,7.2c1.8,1.4,4.4,2,7,2
		c2.6,0,5.2-0.7,7.2-2C134.6,59.3,135.6,56.1,134.5,52.2z"/>
</g>
<line class="st2" x1="148.8" y1="124" x2="172.5" y2="124"/>
<line class="st2" x1="115.8" y1="108" x2="172.5" y2="108"/>
<line class="st2" x1="115.8" y1="98" x2="172.5" y2="98"/>
<line class="st2" x1="115.8" y1="88" x2="172.5" y2="88"/>
<line class="st2" x1="115.8" y1="78" x2="172.5" y2="78"/>
<line class="st2" x1="115.8" y1="68" x2="172.5" y2="68"/>
<line class="st2" x1="141.8" y1="58" x2="172.5" y2="58"/>
<line class="st2" x1="141.8" y1="48" x2="172.5" y2="48"/>
<line class="st2" x1="141.8" y1="38" x2="172.5" y2="38"/>
</svg>
